<?xml version="1.0" encoding="UTF-8"?>
<svg id="BG" xmlns="http://www.w3.org/2000/svg" width="177.199" height="380" version="1.1" viewBox="0 0 177.199 380">
  <!-- Generator: Adobe Illustrator 30.3.0, SVG Export Plug-In . SVG Version: 2.1.3 Build 182)  -->
  <rect x="-3.248" width="182.574" height="380" fill="#262626"/>
  <path d="M160.923,116.089c0,9.534-4.66,17.981-11.826,23.185-4.721,3.429-10.529,5.451-16.81,5.451-6.206,0-11.95-1.974-16.64-5.328-7.263-5.194-11.996-13.698-11.996-23.308,0-15.815,12.821-28.636,28.636-28.636s28.636,12.821,28.636,28.636Z" fill="#262626"/>
  <path d="M115.647,139.397c-7.263-5.194-11.996-13.698-11.996-23.308,0-15.815,12.821-28.636,28.636-28.636s28.636,12.821,28.636,28.636c0,9.534-4.66,17.981-11.826,23.185" fill="#262626" stroke="#d6d6d6" stroke-linecap="round" stroke-miterlimit="10"/>
  <g>
    <line x1="132.287" y1="83.828" x2="132.287" y2="87.2" fill="#262626" stroke="#d6d6d6" stroke-linecap="round" stroke-linejoin="round"/>
    <line x1="142.363" y1="85.424" x2="141.292" y2="88.719" fill="#262626" stroke="#d6d6d6" stroke-linecap="round" stroke-linejoin="round" stroke-width=".5"/>
    <line x1="151.452" y1="90.055" x2="149.419" y2="92.854" fill="#262626" stroke="#d6d6d6" stroke-linecap="round" stroke-linejoin="round" stroke-width=".5"/>
    <line x1="158.666" y1="97.269" x2="155.862" y2="99.306" fill="#262626" stroke="#d6d6d6" stroke-linecap="round" stroke-linejoin="round" stroke-width=".5"/>
    <line x1="163.297" y1="106.358" x2="160.002" y2="107.429" fill="#262626" stroke="#d6d6d6" stroke-linecap="round" stroke-linejoin="round" stroke-width=".5"/>
    <line x1="164.893" y1="116.434" x2="161.347" y2="116.434" fill="#262626" stroke="#d6d6d6" stroke-linecap="round" stroke-linejoin="round"/>
    <line x1="163.297" y1="126.51" x2="160.002" y2="125.439" fill="#262626" stroke="#d6d6d6" stroke-linecap="round" stroke-linejoin="round" stroke-width=".5"/>
    <line x1="158.666" y1="135.599" x2="155.799" y2="133.516" fill="#262626" stroke="#d6d6d6" stroke-linecap="round" stroke-linejoin="round" stroke-width=".5"/>
    <line x1="151.452" y1="142.813" x2="148.956" y2="139.377" fill="#262626" stroke="#d6d6d6" stroke-linecap="round" stroke-linejoin="round"/>
    <line x1="113.122" y1="142.813" x2="115.619" y2="139.376" fill="#262626" stroke="#d6d6d6" stroke-linecap="round" stroke-linejoin="round"/>
    <line x1="105.908" y1="135.599" x2="108.66" y2="133.6" fill="#262626" stroke="#d6d6d6" stroke-linecap="round" stroke-linejoin="round" stroke-width=".5"/>
    <line x1="101.277" y1="126.51" x2="104.462" y2="125.475" fill="#262626" stroke="#d6d6d6" stroke-linecap="round" stroke-linejoin="round" stroke-width=".5"/>
    <line x1="99.681" y1="116.434" x2="103.039" y2="116.434" fill="#262626" stroke="#d6d6d6" stroke-linecap="round" stroke-linejoin="round"/>
    <line x1="101.277" y1="106.358" x2="104.572" y2="107.429" fill="#262626" stroke="#d6d6d6" stroke-linecap="round" stroke-linejoin="round" stroke-width=".5"/>
    <line x1="105.908" y1="97.269" x2="108.616" y2="99.236" fill="#262626" stroke="#d6d6d6" stroke-linecap="round" stroke-linejoin="round" stroke-width=".5"/>
    <line x1="113.122" y1="90.055" x2="115.155" y2="92.854" fill="#262626" stroke="#d6d6d6" stroke-linecap="round" stroke-linejoin="round" stroke-width=".5"/>
    <line x1="122.211" y1="85.424" x2="123.246" y2="88.608" fill="#262626" stroke="#d6d6d6" stroke-linecap="round" stroke-linejoin="round" stroke-width=".5"/>
  </g>
  <g>
    <line x1="80.5" y1="78.459" x2="85.462" y2="78.459" fill="none" stroke="#d6d6d6" stroke-linecap="round" stroke-linejoin="round" stroke-width=".5"/>
    <line x1="80.5" y1="84.205" x2="85.462" y2="84.205" fill="none" stroke="#d6d6d6" stroke-linecap="round" stroke-linejoin="round" stroke-width=".5"/>
    <line x1="80.5" y1="89.951" x2="85.462" y2="89.951" fill="none" stroke="#d6d6d6" stroke-linecap="round" stroke-linejoin="round" stroke-width=".5"/>
    <line x1="80.5" y1="95.697" x2="85.462" y2="95.697" fill="none" stroke="#d6d6d6" stroke-linecap="round" stroke-linejoin="round" stroke-width=".5"/>
    <line x1="80.5" y1="101.444" x2="85.462" y2="101.444" fill="none" stroke="#d6d6d6" stroke-linecap="round" stroke-linejoin="round" stroke-width=".5"/>
    <line x1="80.5" y1="107.19" x2="85.462" y2="107.19" fill="none" stroke="#d6d6d6" stroke-linecap="round" stroke-linejoin="round" stroke-width=".5"/>
    <line x1="80.5" y1="112.936" x2="85.462" y2="112.936" fill="none" stroke="#d6d6d6" stroke-linecap="round" stroke-linejoin="round" stroke-width=".5"/>
    <line x1="80.501" y1="124.428" x2="85.463" y2="124.428" fill="none" stroke="#d6d6d6" stroke-linecap="round" stroke-linejoin="round" stroke-width=".5"/>
    <line x1="80.501" y1="118.682" x2="85.463" y2="118.682" fill="none" stroke="#d6d6d6" stroke-linecap="round" stroke-linejoin="round" stroke-width=".5"/>
    <line x1="80.5" y1="130.175" x2="85.462" y2="130.175" fill="none" stroke="#d6d6d6" stroke-linecap="round" stroke-linejoin="round" stroke-width=".5"/>
    <line x1="80.5" y1="135.921" x2="85.462" y2="135.921" fill="none" stroke="#d6d6d6" stroke-linecap="round" stroke-linejoin="round" stroke-width=".5"/>
    <line x1="80.5" y1="141.667" x2="85.462" y2="141.667" fill="none" stroke="#d6d6d6" stroke-linecap="round" stroke-linejoin="round" stroke-width=".5"/>
    <line x1="80.5" y1="147.413" x2="85.462" y2="147.413" fill="none" stroke="#d6d6d6" stroke-linecap="round" stroke-linejoin="round" stroke-width=".5"/>
    <line x1="80.5" y1="153.16" x2="85.462" y2="153.16" fill="none" stroke="#d6d6d6" stroke-linecap="round" stroke-linejoin="round" stroke-width=".5"/>
    <line x1="80.5" y1="158.906" x2="85.462" y2="158.906" fill="none" stroke="#d6d6d6" stroke-linecap="round" stroke-linejoin="round" stroke-width=".5"/>
    <line x1="80.5" y1="164.652" x2="85.462" y2="164.652" fill="none" stroke="#d6d6d6" stroke-linecap="round" stroke-linejoin="round" stroke-width=".5"/>
    <line x1="80.501" y1="176.144" x2="85.463" y2="176.144" fill="none" stroke="#d6d6d6" stroke-linecap="round" stroke-linejoin="round" stroke-width=".5"/>
    <line x1="80.501" y1="170.398" x2="85.463" y2="170.398" fill="none" stroke="#d6d6d6" stroke-linecap="round" stroke-linejoin="round" stroke-width=".5"/>
    <line x1="80.5" y1="181.891" x2="85.462" y2="181.891" fill="none" stroke="#d6d6d6" stroke-linecap="round" stroke-linejoin="round" stroke-width=".5"/>
    <line x1="80.5" y1="187.637" x2="85.462" y2="187.637" fill="none" stroke="#d6d6d6" stroke-linecap="round" stroke-linejoin="round" stroke-width=".5"/>
    <line x1="80.5" y1="193.383" x2="85.462" y2="193.383" fill="none" stroke="#d6d6d6" stroke-linecap="round" stroke-linejoin="round" stroke-width=".5"/>
    <line x1="80.5" y1="199.129" x2="85.462" y2="199.129" fill="none" stroke="#d6d6d6" stroke-linecap="round" stroke-linejoin="round" stroke-width=".5"/>
    <line x1="80.5" y1="204.875" x2="85.462" y2="204.875" fill="none" stroke="#d6d6d6" stroke-linecap="round" stroke-linejoin="round" stroke-width=".5"/>
    <line x1="80.5" y1="210.622" x2="85.462" y2="210.622" fill="none" stroke="#d6d6d6" stroke-linecap="round" stroke-linejoin="round" stroke-width=".5"/>
    <line x1="80.5" y1="216.368" x2="85.462" y2="216.368" fill="none" stroke="#d6d6d6" stroke-linecap="round" stroke-linejoin="round" stroke-width=".5"/>
  </g>
  <g>
    <path d="M72.404,72.947h0c2.392,0,4.332,1.939,4.332,4.332v140.35c0,2.392-1.939,4.582-4.332,4.582h0c-2.393,0-4.332-1.939-4.332-4.332V77.279c0-2.392,1.939-4.332,4.332-4.332Z" fill="#1a1a1a"/>
    <g opacity=".56">
      <path d="M74.018,73.858c1.294.587,2.165,1.74,2.165,3.343v140.61c0,1.664-.774,2.857-2.164,3.604" fill="none" stroke="#3f3f3f" stroke-miterlimit="10"/>
    </g>
    <path d="M70.238,216.7V78.458c0-1.587.879-2.955,2.166-3.687v-1.824c-2.393,0-4.332,1.94-4.332,4.332v140.6c0,2.393,1.94,4.332,4.332,4.332v-1.824c-1.288-.732-2.166-2.1-2.166-3.687Z"/>
  </g>
  <g>
    <path d="M13.306,266.805c-.036.432-.216,2.458-2.363,2.458-2.267,0-2.494-2.123-2.494-4.222,0-2.542.72-4.162,2.578-4.162,2.087,0,2.243,1.847,2.267,2.447h-1.259c-.012-.276-.048-1.367-1.02-1.367-1.044,0-1.26,1.343-1.26,3.106,0,1.595.168,3.13,1.212,3.13.936,0,1.043-1.043,1.079-1.391h1.26Z" fill="#ff0"/>
    <path d="M13.992,261.001h1.26v3.298h2.194v-3.298h1.26v8.131h-1.26v-3.742h-2.194v3.742h-1.26v-8.131Z" fill="#ff0"/>
    <path d="M20.964,266.901l-.467,2.231h-1.26l1.907-8.131h1.631l1.942,8.131h-1.318l-.48-2.231h-1.955ZM22.691,265.798c-.359-1.703-.624-2.891-.743-3.622h-.036c-.097.744-.384,2.039-.72,3.622h1.499Z" fill="#ff0"/>
    <path d="M26.447,261.001v8.131h-1.26v-8.131h1.26Z" fill="#ff0"/>
    <path d="M27.647,269.132v-8.131h1.464c1.871,4.881,2.194,5.708,2.29,6.092h.013c-.061-1.019-.072-2.219-.072-3.55v-2.542h1.14v8.131h-1.403c-1.931-5.169-2.243-5.997-2.339-6.356h-.012c.06,1.007.06,2.255.06,3.718v2.639h-1.14Z" fill="#ff0"/>
  </g>
  <g>
    <path d="M57.517,233.412c-.036.432-.216,2.458-2.363,2.458-2.267,0-2.494-2.123-2.494-4.222,0-2.542.72-4.162,2.578-4.162,2.087,0,2.243,1.847,2.267,2.447h-1.259c-.013-.276-.048-1.367-1.02-1.367-1.044,0-1.26,1.343-1.26,3.106,0,1.595.168,3.13,1.212,3.13.936,0,1.043-1.043,1.079-1.391h1.26Z" fill="#ff0"/>
    <path d="M63.133,231.613c0,2.903-.756,4.258-2.591,4.258-1.715,0-2.519-1.331-2.519-4.27,0-2.878.936-4.114,2.578-4.114,1.739,0,2.531,1.319,2.531,4.125ZM59.318,231.589c0,2.063.348,3.214,1.26,3.214.947,0,1.259-1.091,1.259-3.202,0-2.063-.336-3.034-1.259-3.034-.912,0-1.26,1.067-1.26,3.022Z" fill="#ff0"/>
    <path d="M68.989,232.56c0-1.427.023-2.986.048-3.886h-.036c-.288,1.487-.828,4.449-1.403,7.064h-1.151c-.432-2.375-1.008-5.541-1.271-7.088h-.048c.048.947.084,2.687.084,4.078v3.01h-1.163v-8.131h1.883c.504,2.351.972,4.905,1.151,6.057h.012c.156-1.032.756-3.802,1.26-6.057h1.847v8.131h-1.211v-3.178Z" fill="#ff0"/>
    <path d="M71.378,227.607h2.327c1.319,0,2.278.803,2.278,2.375,0,1.523-.875,2.375-2.398,2.375h-.947v3.382h-1.26v-8.131ZM72.638,231.337h.804c.863,0,1.271-.444,1.271-1.379,0-.839-.432-1.307-1.188-1.307h-.888v2.687Z" fill="#ff0"/>
    <path d="M76.274,235.978l2.339-8.419h.947l-2.326,8.419h-.96Z" fill="#ff0"/>
    <path d="M84.912,233.412c-.036.432-.216,2.458-2.363,2.458-2.267,0-2.494-2.123-2.494-4.222,0-2.542.72-4.162,2.578-4.162,2.087,0,2.243,1.847,2.267,2.447h-1.259c-.012-.276-.048-1.367-1.02-1.367-1.044,0-1.26,1.343-1.26,3.106,0,1.595.168,3.13,1.212,3.13.936,0,1.043-1.043,1.079-1.391h1.26Z" fill="#ff0"/>
    <path d="M87.134,235.739l-2.015-8.131h1.355l.791,3.598c.252,1.092.504,2.375.6,3.203h.024c.107-.792.432-2.099.684-3.19l.779-3.61h1.319l-2.062,8.131h-1.476Z" fill="#ff0"/>
  </g>
  <g>
    <path d="M149.402,266.805c-.036.432-.216,2.458-2.363,2.458-2.267,0-2.494-2.123-2.494-4.222,0-2.542.72-4.162,2.578-4.162,2.087,0,2.243,1.847,2.267,2.447h-1.259c-.012-.276-.048-1.367-1.02-1.367-1.044,0-1.26,1.343-1.26,3.106,0,1.595.168,3.13,1.212,3.13.936,0,1.043-1.043,1.079-1.391h1.26Z" fill="#ff0"/>
    <path d="M150.089,261.001h1.26v3.298h2.194v-3.298h1.26v8.131h-1.26v-3.742h-2.194v3.742h-1.26v-8.131Z" fill="#ff0"/>
    <path d="M157.061,266.901l-.467,2.231h-1.26l1.907-8.131h1.631l1.942,8.131h-1.318l-.48-2.231h-1.955ZM158.788,265.798c-.359-1.703-.624-2.891-.743-3.622h-.036c-.097.744-.384,2.039-.72,3.622h1.499Z" fill="#ff0"/>
    <path d="M162.544,261.001v8.131h-1.26v-8.131h1.26Z" fill="#ff0"/>
    <path d="M163.744,269.132v-8.131h1.464c1.871,4.881,2.194,5.708,2.29,6.092h.013c-.061-1.019-.072-2.219-.072-3.55v-2.542h1.14v8.131h-1.403c-1.931-5.169-2.243-5.997-2.339-6.356h-.012c.06,1.007.06,2.255.06,3.718v2.639h-1.14Z" fill="#ff0"/>
  </g>
  <path d="M-3.75,274.129h37.438c3.78,0,6.845,3.065,6.845,6.845v72.287c0,3.78-3.065,6.845-6.845,6.845H-3.75" fill="none" stroke="#ff0" stroke-linecap="round" stroke-linejoin="round" stroke-width=".5"/>
  <path d="M52.565,380.044v-99.07c0-3.78,3.065-6.845,6.845-6.845h58.287c3.78,0,6.845,3.065,6.845,6.845v99.07" fill="none" stroke="#fff" stroke-linecap="round" stroke-linejoin="round" stroke-width=".5"/>
  <g>
    <path d="M85.11,260.751h4.03v1.115h-2.782v2.303h2.614v1.091h-2.614v3.622h-1.248v-8.131Z" fill="#fff"/>
    <path d="M93.305,268.882l-1.308-3.154h-.012l-1.332,3.154h-1.331l1.955-4.174-1.883-3.958h1.439l1.223,2.842h.013l1.235-2.842h1.331l-1.871,3.826,1.979,4.306h-1.438Z" fill="#fff"/>
  </g>
  <path d="M180.193,360.105h-37.511c-3.78,0-6.845-3.065-6.845-6.845v-72.287c0-3.78,3.065-6.845,6.845-6.845h37.511" fill="none" stroke="#ff0" stroke-linecap="round" stroke-linejoin="round" stroke-width=".5"/>
  <path d="M90.679,250.915h18.073c1.053,0,1.908-.854,1.908-1.908v-9.386" fill="none" stroke="#d6d6d6" stroke-linecap="round" stroke-linejoin="round" stroke-width=".5"/>
  <g>
    <rect x="12.113" y="20.247" width="28.802" height="8.163" rx="4.082" ry="4.082" fill="none" stroke="#ff0" stroke-miterlimit="10" stroke-width=".5"/>
    <rect x="28.537" y="24.329" width="28.802" height="8.163" rx="4.082" ry="4.082" fill="none" stroke="#ff0" stroke-miterlimit="10" stroke-width=".5"/>
  </g>
  <g>
    <g>
      <rect x="19.426" y="40.378" width="28.802" height="8.163" rx="4.082" ry="4.082" fill="none" stroke="#ff0" stroke-miterlimit="10" stroke-width=".5"/>
      <rect x="52.844" y="40.378" width="28.802" height="8.163" rx="4.082" ry="4.082" fill="none" stroke="#ff0" stroke-miterlimit="10" stroke-width=".5"/>
      <path d="M.409,40.378h10.319c2.254,0,4.082,1.827,4.082,4.082h0c0,2.254-1.827,4.082-4.082,4.082H.409" fill="none" fill-rule="evenodd" stroke="#ff0" stroke-miterlimit="10" stroke-width=".5"/>
    </g>
    <g>
      <rect x="36.327" y="36.296" width="28.802" height="8.163" rx="4.082" ry="4.082" fill="none" stroke="#ff0" stroke-miterlimit="10" stroke-width=".5"/>
      <rect x="69.744" y="36.296" width="28.802" height="8.163" rx="4.082" ry="4.082" fill="none" stroke="#ff0" stroke-miterlimit="10" stroke-width=".5"/>
      <rect x="2.909" y="36.296" width="28.802" height="8.163" rx="4.082" ry="4.082" fill="none" stroke="#ff0" stroke-miterlimit="10" stroke-width=".5"/>
    </g>
  </g>
  <g>
    <g>
      <rect x="131.507" y="40.378" width="28.802" height="8.163" rx="4.082" ry="4.082" transform="translate(291.817 88.919) rotate(-180)" fill="none" stroke="#ff0" stroke-miterlimit="10" stroke-width=".5"/>
      <path d="M179.326,40.378h-10.319c-2.254,0-4.082,1.827-4.082,4.082h0c0,2.254,1.827,4.082,4.082,4.082h10.319" fill="none" fill-rule="evenodd" stroke="#ff0" stroke-miterlimit="10" stroke-width=".5"/>
    </g>
    <rect x="148.024" y="36.296" width="28.802" height="8.163" rx="4.082" ry="4.082" transform="translate(324.851 80.756) rotate(180)" fill="none" stroke="#ff0" stroke-miterlimit="10" stroke-width=".5"/>
  </g>
  <g>
    <path d="M65.223,63.003c-.036.432-.216,2.458-2.363,2.458-2.267,0-2.494-2.123-2.494-4.222,0-2.542.72-4.162,2.578-4.162,2.087,0,2.243,1.847,2.267,2.447h-1.259c-.013-.276-.048-1.367-1.02-1.367-1.044,0-1.26,1.343-1.26,3.106,0,1.595.168,3.13,1.212,3.13.936,0,1.043-1.043,1.079-1.391h1.26Z" fill="#fff"/>
    <path d="M65.909,57.198h1.26v3.298h2.194v-3.298h1.26v8.131h-1.26v-3.742h-2.194v3.742h-1.26v-8.131Z" fill="#fff"/>
    <path d="M74.225,65.329v-6.68c-.216.06-.707.144-.983.132v-.923c.6-.084,1.092-.384,1.392-.684h.852v8.155h-1.26Z" fill="#fff"/>
    <path d="M78.976,60.604v1.092h-2.566v-1.092h2.566Z" fill="#fff"/>
    <path d="M79.276,65.329v-.084c0-1.259.588-2.339,1.823-3.73.888-1.02,1.247-1.331,1.247-2.183,0-.6-.132-1.2-.839-1.2-.672,0-.912.468-.947,1.427h-1.235c.023-1.331.611-2.458,2.23-2.458,1.511,0,2.11.912,2.11,2.243,0,.972-.396,1.547-1.463,2.699-.863.923-1.319,1.631-1.463,2.195h3.106l-.168,1.091h-4.402Z" fill="#fff"/>
  </g>
  <g>
    <path d="M9.514,145.404h1.26v7.052h2.818l-.133,1.08h-3.945v-8.131Z" fill="#fff"/>
    <path d="M15.309,145.404v8.131h-1.26v-8.131h1.26Z" fill="#fff"/>
    <path d="M16.51,153.535v-8.131h1.463c1.871,4.881,2.195,5.708,2.291,6.092h.012c-.061-1.019-.072-2.219-.072-3.55v-2.542h1.141v8.131h-1.404c-1.93-5.169-2.242-5.997-2.338-6.356h-.012c.059,1.007.059,2.255.059,3.718v2.639h-1.139Z" fill="#fff"/>
    <path d="M26.42,149.829h-2.639v2.615h2.949l-.156,1.091h-4.041v-8.131h4.018v1.115h-2.77v2.207h2.639v1.104Z" fill="#fff"/>
    <path d="M29.361,145.404h1.26v7.052h2.818l-.133,1.08h-3.945v-8.131Z" fill="#fff"/>
    <path d="M37.783,149.829h-2.639v2.615h2.951l-.156,1.091h-4.043v-8.131h4.02v1.115h-2.771v2.207h2.639v1.104Z" fill="#fff"/>
    <path d="M40.281,153.535l-2.016-8.131h1.355l.791,3.598c.252,1.092.504,2.375.6,3.203h.025c.107-.792.432-2.099.684-3.19l.779-3.61h1.318l-2.062,8.131h-1.475Z" fill="#fff"/>
    <path d="M48.187,149.829h-2.639v2.615h2.949l-.156,1.091h-4.041v-8.131h4.018v1.115h-2.77v2.207h2.639v1.104Z" fill="#fff"/>
    <path d="M49.137,145.404h1.26v7.052h2.818l-.133,1.08h-3.945v-8.131Z" fill="#fff"/>
    <path d="M55.629,145.404h1.26v7.052h2.818l-.133,1.08h-3.945v-8.131Z" fill="#fff"/>
  </g>
  <g>
    <path d="M7.795,183.275h1.26v7.052h2.818l-.131,1.08h-3.947v-8.131Z" fill="#fff"/>
    <path d="M13.592,183.275v8.131h-1.26v-8.131h1.26Z" fill="#fff"/>
    <path d="M14.791,191.407v-8.131h1.465c1.871,4.881,2.193,5.708,2.289,6.092h.014c-.061-1.019-.072-2.219-.072-3.55v-2.542h1.139v8.131h-1.402c-1.932-5.169-2.244-5.997-2.34-6.356h-.012c.061,1.007.061,2.255.061,3.718v2.639h-1.141Z" fill="#fff"/>
    <path d="M24.701,187.7h-2.639v2.615h2.951l-.156,1.091h-4.043v-8.131h4.02v1.115h-2.771v2.207h2.639v1.104Z" fill="#fff"/>
    <path d="M27.643,183.275h1.26v7.052h2.818l-.131,1.08h-3.947v-8.131Z" fill="#fff"/>
    <path d="M36.066,187.7h-2.639v2.615h2.949l-.156,1.091h-4.041v-8.131h4.018v1.115h-2.77v2.207h2.639v1.104Z" fill="#fff"/>
    <path d="M38.562,191.407l-2.014-8.131h1.355l.791,3.598c.252,1.092.504,2.375.6,3.203h.023c.107-.792.432-2.099.684-3.19l.779-3.61h1.32l-2.062,8.131h-1.477Z" fill="#fff"/>
    <path d="M46.469,187.7h-2.639v2.615h2.951l-.156,1.091h-4.043v-8.131h4.02v1.115h-2.771v2.207h2.639v1.104Z" fill="#fff"/>
    <path d="M47.418,183.275h1.26v7.052h2.818l-.131,1.08h-3.947v-8.131Z" fill="#fff"/>
    <path d="M55.158,187.845v3.562h-1.248v-8.131h2.363c1.439,0,2.23.779,2.23,2.183,0,1.188-.623,1.703-1.066,1.871.672.288.947.863.947,2.039v.324c0,.863.035,1.283.107,1.715h-1.223c-.121-.372-.133-1.043-.133-1.727v-.288c0-1.116-.24-1.547-1.223-1.547h-.756ZM55.158,186.813h.816c.91,0,1.258-.444,1.258-1.308,0-.731-.348-1.187-1.139-1.187h-.936v2.495Z" fill="#fff"/>
  </g>
  <g>
    <path d="M14.32,279.52v8.131h-1.26v-8.131h1.26Z" fill="#fff"/>
    <path d="M15.519,287.652v-8.131h1.465c1.871,4.881,2.193,5.708,2.289,6.092h.014c-.061-1.019-.072-2.219-.072-3.55v-2.542h1.139v8.131h-1.402c-1.932-5.169-2.244-5.997-2.34-6.356h-.012c.061,1.007.061,2.255.061,3.718v2.639h-1.141Z" fill="#fff"/>
    <path d="M21.113,287.891l2.338-8.419h.947l-2.326,8.419h-.959Z" fill="#fff"/>
    <path d="M25.18,279.52h1.26v7.052h2.818l-.133,1.08h-3.945v-8.131Z" fill="#fff"/>
  </g>
  <g>
    <path d="M60.784,285.421c.072.732.384,1.355,1.176,1.355.768,0,1.091-.456,1.091-1.175,0-.731-.336-1.14-1.391-1.655-1.355-.636-1.907-1.211-1.907-2.411,0-1.235.804-2.135,2.219-2.135,1.739,0,2.183,1.199,2.207,2.219h-1.235c-.049-.432-.168-1.211-.996-1.211-.647,0-.936.432-.936,1.02,0,.647.288.959,1.271,1.415,1.439.672,2.051,1.332,2.051,2.651,0,1.271-.768,2.291-2.41,2.291-1.787,0-2.339-1.151-2.399-2.363h1.26Z" fill="#fff"/>
    <path d="M65.104,287.652v-8.131h1.464c1.871,4.881,2.194,5.708,2.29,6.092h.013c-.061-1.019-.072-2.219-.072-3.55v-2.542h1.14v8.131h-1.403c-1.931-5.169-2.243-5.997-2.339-6.356h-.012c.06,1.007.06,2.255.06,3.718v2.639h-1.14Z" fill="#fff"/>
    <path d="M71.129,279.52h2.003c2.027,0,2.843,1.331,2.843,3.886,0,2.747-.768,4.246-2.95,4.246h-1.896v-8.131ZM72.4,286.608h.6c1.248,0,1.667-.971,1.667-3.19,0-1.967-.419-2.83-1.654-2.83h-.612v6.021Z" fill="#fff"/>
    <path d="M76.444,287.891l2.339-8.419h.947l-2.326,8.419h-.96Z" fill="#fff"/>
    <path d="M80.512,279.52h1.26v7.052h2.818l-.132,1.08h-3.946v-8.131Z" fill="#fff"/>
  </g>
  <g>
    <path d="M96.992,284.09v3.562h-1.248v-8.131h2.363c1.439,0,2.23.779,2.23,2.183,0,1.188-.623,1.703-1.067,1.871.672.288.947.863.947,2.039v.324c0,.863.036,1.283.108,1.715h-1.224c-.12-.372-.132-1.043-.132-1.727v-.288c0-1.116-.24-1.547-1.224-1.547h-.755ZM96.992,283.058h.815c.911,0,1.259-.444,1.259-1.308,0-.731-.348-1.187-1.139-1.187h-.936v2.495Z" fill="#fff"/>
    <path d="M102.367,280.636h-1.763v-1.115h4.785v1.115h-1.763v7.016h-1.26v-7.016Z" fill="#fff"/>
    <path d="M105.44,287.891l2.339-8.419h.947l-2.326,8.419h-.96Z" fill="#fff"/>
    <path d="M109.507,279.52h1.26v7.052h2.818l-.132,1.08h-3.946v-8.131Z" fill="#fff"/>
  </g>
  <g>
    <path d="M60.316,325.531c.072.732.384,1.355,1.176,1.355.768,0,1.091-.456,1.091-1.175,0-.731-.336-1.14-1.391-1.655-1.355-.636-1.907-1.211-1.907-2.411,0-1.235.804-2.135,2.219-2.135,1.739,0,2.183,1.199,2.207,2.219h-1.235c-.048-.432-.168-1.211-.996-1.211-.647,0-.936.432-.936,1.02,0,.647.288.959,1.271,1.415,1.439.672,2.051,1.332,2.051,2.651,0,1.271-.768,2.291-2.41,2.291-1.787,0-2.339-1.151-2.399-2.363h1.26Z" fill="#fff"/>
    <path d="M64.637,327.762v-8.131h1.464c1.871,4.881,2.194,5.708,2.29,6.092h.013c-.061-1.019-.072-2.219-.072-3.55v-2.542h1.14v8.131h-1.403c-1.931-5.169-2.243-5.997-2.339-6.356h-.012c.06,1.007.06,2.255.06,3.718v2.639h-1.14Z" fill="#fff"/>
    <path d="M70.661,319.63h2.003c2.027,0,2.843,1.331,2.843,3.886,0,2.747-.768,4.246-2.95,4.246h-1.896v-8.131ZM71.933,326.718h.6c1.248,0,1.667-.971,1.667-3.19,0-1.967-.419-2.83-1.654-2.83h-.612v6.021Z" fill="#fff"/>
    <path d="M75.977,328.001l2.339-8.419h.947l-2.326,8.419h-.96Z" fill="#fff"/>
    <path d="M81.292,324.2v3.562h-1.248v-8.131h2.363c1.439,0,2.23.779,2.23,2.183,0,1.188-.623,1.703-1.067,1.871.672.288.947.863.947,2.039v.324c0,.863.036,1.283.108,1.715h-1.224c-.12-.372-.132-1.043-.132-1.727v-.288c0-1.116-.24-1.547-1.224-1.547h-.755ZM81.292,323.168h.815c.911,0,1.259-.444,1.259-1.308,0-.731-.348-1.187-1.139-1.187h-.936v2.495Z" fill="#fff"/>
  </g>
  <g>
    <path d="M95.749,324.2v3.562h-1.248v-8.131h2.363c1.439,0,2.23.779,2.23,2.183,0,1.188-.623,1.703-1.067,1.871.672.288.947.863.947,2.039v.324c0,.863.036,1.283.108,1.715h-1.224c-.12-.372-.132-1.043-.132-1.727v-.288c0-1.116-.24-1.547-1.224-1.547h-.755ZM95.749,323.168h.815c.911,0,1.259-.444,1.259-1.308,0-.731-.348-1.187-1.139-1.187h-.936v2.495Z" fill="#fff"/>
    <path d="M101.124,320.745h-1.763v-1.115h4.785v1.115h-1.763v7.016h-1.26v-7.016Z" fill="#fff"/>
    <path d="M104.197,328.001l2.339-8.419h.947l-2.326,8.419h-.96Z" fill="#fff"/>
    <path d="M109.512,324.2v3.562h-1.248v-8.131h2.363c1.439,0,2.23.779,2.23,2.183,0,1.188-.623,1.703-1.067,1.871.672.288.947.863.947,2.039v.324c0,.863.036,1.283.108,1.715h-1.224c-.12-.372-.132-1.043-.132-1.727v-.288c0-1.116-.24-1.547-1.224-1.547h-.755ZM109.512,323.168h.815c.911,0,1.259-.444,1.259-1.308,0-.731-.348-1.187-1.139-1.187h-.936v2.495Z" fill="#fff"/>
  </g>
  <g>
    <path d="M13.352,319.941v8.131h-1.26v-8.131h1.26Z" fill="#fff"/>
    <path d="M14.553,328.073v-8.131h1.463c1.871,4.881,2.195,5.708,2.291,6.092h.012c-.061-1.019-.072-2.219-.072-3.55v-2.542h1.141v8.131h-1.404c-1.93-5.169-2.242-5.997-2.338-6.356h-.012c.059,1.007.059,2.255.059,3.718v2.639h-1.139Z" fill="#fff"/>
    <path d="M20.144,328.312l2.34-8.419h.947l-2.326,8.419h-.961Z" fill="#fff"/>
    <path d="M25.459,324.511v3.562h-1.248v-8.131h2.363c1.439,0,2.23.779,2.23,2.183,0,1.188-.623,1.703-1.066,1.871.672.288.947.863.947,2.039v.324c0,.863.035,1.283.107,1.715h-1.223c-.121-.372-.133-1.043-.133-1.727v-.288c0-1.116-.24-1.547-1.223-1.547h-.756ZM25.459,323.479h.816c.91,0,1.258-.444,1.258-1.308,0-.731-.348-1.187-1.139-1.187h-.936v2.495Z" fill="#fff"/>
  </g>
  <g>
    <path d="M149.919,283.526c0,2.903-.756,4.258-2.591,4.258-1.715,0-2.519-1.331-2.519-4.27,0-2.878.936-4.114,2.578-4.114,1.739,0,2.531,1.319,2.531,4.125ZM146.104,283.502c0,2.063.348,3.214,1.26,3.214.947,0,1.259-1.091,1.259-3.202,0-2.063-.336-3.034-1.259-3.034-.912,0-1.26,1.067-1.26,3.022Z" fill="#fff"/>
    <path d="M152.009,279.52v5.637c0,.744.204,1.559,1.164,1.559.936,0,1.139-.684,1.139-1.559v-5.637h1.271v5.661c0,1.463-.563,2.603-2.435,2.603-1.835,0-2.398-1.067-2.398-2.59v-5.673h1.259Z" fill="#fff"/>
    <path d="M157.829,280.636h-1.763v-1.115h4.785v1.115h-1.763v7.016h-1.26v-7.016Z" fill="#fff"/>
    <path d="M160.901,287.891l2.339-8.419h.947l-2.326,8.419h-.96Z" fill="#fff"/>
    <path d="M164.969,279.52h1.26v7.052h2.818l-.132,1.08h-3.946v-8.131Z" fill="#fff"/>
  </g>
  <g>
    <path d="M148.95,323.947c0,2.903-.755,4.258-2.59,4.258-1.715,0-2.519-1.331-2.519-4.27,0-2.878.936-4.114,2.578-4.114,1.739,0,2.53,1.319,2.53,4.125ZM145.137,323.923c0,2.063.348,3.214,1.26,3.214.947,0,1.259-1.091,1.259-3.202,0-2.063-.336-3.034-1.259-3.034-.912,0-1.26,1.067-1.26,3.022Z" fill="#fff"/>
    <path d="M151.041,319.941v5.637c0,.744.204,1.559,1.164,1.559.935,0,1.139-.684,1.139-1.559v-5.637h1.271v5.661c0,1.463-.563,2.603-2.435,2.603-1.835,0-2.398-1.067-2.398-2.59v-5.673h1.259Z" fill="#fff"/>
    <path d="M156.861,321.056h-1.763v-1.115h4.785v1.115h-1.763v7.016h-1.26v-7.016Z" fill="#fff"/>
    <path d="M159.934,328.312l2.339-8.419h.947l-2.326,8.419h-.96Z" fill="#fff"/>
    <path d="M165.249,324.511v3.562h-1.248v-8.131h2.363c1.439,0,2.23.779,2.23,2.183,0,1.188-.623,1.703-1.067,1.871.672.288.947.863.947,2.039v.324c0,.863.036,1.283.108,1.715h-1.224c-.12-.372-.132-1.043-.132-1.727v-.288c0-1.116-.24-1.547-1.224-1.547h-.755ZM165.249,323.479h.815c.911,0,1.259-.444,1.259-1.308,0-.731-.348-1.187-1.139-1.187h-.936v2.495Z" fill="#fff"/>
  </g>
  <path d="M57.727,61.729h-22.573c-1.053,0-1.908.854-1.907,1.908v3.636" fill="none" stroke="#d6d6d6" stroke-linecap="round" stroke-linejoin="round" stroke-width=".5"/>
  <path d="M89.453,61.729h41.114c1.053,0,1.908.854,1.908,1.908v3.636" fill="none" stroke="#d6d6d6" stroke-linecap="round" stroke-linejoin="round" stroke-width=".5"/>
  <path d="M90.679,250.915h-55.025c-1.053,0-1.908-.854-1.908-1.908v-27.78" fill="none" stroke="#d6d6d6" stroke-linecap="round" stroke-linejoin="round" stroke-width=".5"/>
  <g>
    <path d="M27.858,70.576h4.03v1.115h-2.782v2.303h2.614v1.091h-2.614v3.622h-1.248v-8.131Z" fill="#fff"/>
    <path d="M36.053,78.707l-1.308-3.154h-.012l-1.332,3.154h-1.331l1.955-4.174-1.883-3.958h1.439l1.223,2.842h.013l1.235-2.842h1.331l-1.871,3.826,1.979,4.306h-1.438Z" fill="#fff"/>
    <path d="M38.273,78.707v-6.68c-.216.06-.707.144-.983.132v-.923c.6-.084,1.092-.384,1.392-.684h.852v8.155h-1.26Z" fill="#fff"/>
  </g>
  <g>
    <path d="M104.461,188.131c0-1.427.023-2.986.048-3.886h-.036c-.288,1.487-.828,4.449-1.403,7.064h-1.151c-.432-2.375-1.008-5.541-1.271-7.088h-.048c.048.947.084,2.687.084,4.078v3.01h-1.163v-8.131h1.883c.504,2.351.972,4.905,1.151,6.057h.012c.156-1.032.756-3.802,1.26-6.057h1.847v8.131h-1.211v-3.178Z" fill="#fff"/>
    <path d="M108.038,183.178v5.637c0,.744.204,1.559,1.164,1.559.936,0,1.139-.684,1.139-1.559v-5.637h1.271v5.661c0,1.463-.563,2.603-2.435,2.603-1.835,0-2.398-1.067-2.398-2.59v-5.673h1.259Z" fill="#fff"/>
    <path d="M113.858,184.293h-1.763v-1.115h4.785v1.115h-1.763v7.016h-1.26v-7.016Z" fill="#fff"/>
    <path d="M121.297,187.603h-2.639v2.615h2.95l-.156,1.091h-4.042v-8.131h4.019v1.115h-2.771v2.207h2.639v1.104Z" fill="#fff"/>
  </g>
  <g>
    <g>
      <line x1="32.967" y1="82.285" x2="32.967" y2="84.173" fill="none" stroke="#d6d6d6" stroke-linecap="round" stroke-linejoin="round" stroke-width=".3"/>
      <line x1="39.92" y1="84.545" x2="38.803" y2="86.082" fill="none" stroke="#d6d6d6" stroke-linecap="round" stroke-linejoin="round" stroke-width=".3"/>
      <line x1="44.218" y1="90.46" x2="42.346" y2="91.068" fill="none" stroke="#d6d6d6" stroke-linecap="round" stroke-linejoin="round" stroke-width=".3"/>
      <line x1="44.218" y1="97.771" x2="42.346" y2="97.163" fill="none" stroke="#d6d6d6" stroke-linecap="round" stroke-linejoin="round" stroke-width=".3"/>
      <line x1="39.92" y1="103.686" x2="38.745" y2="102.069" fill="none" stroke="#d6d6d6" stroke-linecap="round" stroke-linejoin="round" stroke-width=".3"/>
      <line x1="26.013" y1="103.686" x2="27.195" y2="102.06" fill="none" stroke="#d6d6d6" stroke-linecap="round" stroke-linejoin="round" stroke-width=".3"/>
      <line x1="21.715" y1="97.771" x2="23.587" y2="97.163" fill="none" stroke="#d6d6d6" stroke-linecap="round" stroke-linejoin="round" stroke-width=".3"/>
      <line x1="21.715" y1="90.46" x2="23.503" y2="91.041" fill="none" stroke="#d6d6d6" stroke-linecap="round" stroke-linejoin="round" stroke-width=".3"/>
      <line x1="26.013" y1="84.545" x2="27.056" y2="85.98" fill="none" stroke="#d6d6d6" stroke-linecap="round" stroke-linejoin="round" stroke-width=".3"/>
    </g>
    <path d="M27.171,102.093c-2.463-1.793-4.064-4.698-4.064-7.977,0-5.446,4.414-9.86,9.86-9.86s9.86,4.414,9.86,9.86c0,3.279-1.601,6.185-4.064,7.977" fill="none" stroke="#d6d6d6" stroke-miterlimit="10" stroke-width=".3"/>
  </g>
  <g>
    <path d="M66.464,31.293v-3.264h6.527v-3.263h-6.527v-9.791h9.79v16.317h-9.79ZM72.991,18.239h-3.264v3.263h3.264v-3.263Z" fill="#fff"/>
    <path d="M79.519,31.293v-9.791h6.527v-3.263h-6.527v-3.264h9.79v16.317h-9.79ZM86.047,24.766h-3.264v3.263h3.264v-3.263Z" fill="#fff"/>
    <path d="M92.575,18.239v-3.264h3.264v3.264h-3.264ZM92.575,31.293v-9.791h3.264v9.791h-3.264Z" fill="#fff"/>
    <path d="M105.63,31.293v-13.054h-3.264v13.054h-3.264V14.975h6.527v3.264h3.263v13.054h-3.263Z" fill="#fff"/>
  </g>
  <g>
    <path d="M127.855,79.957h-.972c-.023-.24-.048-.444-.06-.755-.323.611-.84.887-1.619.887-1.715,0-2.278-1.619-2.278-4.162,0-2.902.947-4.222,2.662-4.222,2.123,0,2.243,1.835,2.267,2.315h-1.247c-.024-.312-.096-1.235-1.056-1.235-1.007,0-1.319,1.283-1.319,3.142,0,1.943.252,3.094,1.248,3.094.887,0,1.127-.708,1.127-2.075v-.432h-1.199v-1.092h2.446v4.534Z" fill="#fff"/>
    <path d="M130.089,77.726l-.467,2.231h-1.26l1.907-8.131h1.631l1.942,8.131h-1.318l-.48-2.231h-1.955ZM131.816,76.623c-.359-1.703-.624-2.891-.743-3.622h-.036c-.097.744-.384,2.039-.72,3.622h1.499Z" fill="#fff"/>
    <path d="M135.574,71.826v8.131h-1.26v-8.131h1.26Z" fill="#fff"/>
    <path d="M136.773,79.957v-8.131h1.464c1.871,4.881,2.194,5.708,2.29,6.092h.013c-.061-1.019-.072-2.219-.072-3.55v-2.542h1.14v8.131h-1.403c-1.931-5.169-2.243-5.997-2.339-6.356h-.012c.06,1.007.06,2.255.06,3.718v2.639h-1.14Z" fill="#fff"/>
  </g>
  <g>
    <path d="M114.059,154.645h2.999v.52h-2.419v2.458h2.269v.51h-2.269v3.308h-.58v-6.796Z" fill="#fff"/>
    <path d="M120.977,158.863c0,1.749-.56,2.668-1.659,2.668-1.149,0-1.679-.889-1.679-2.658,0-1.729.659-2.539,1.699-2.539,1.059,0,1.639.84,1.639,2.529ZM118.219,158.883c0,1.479.4,2.149,1.1,2.149s1.079-.69,1.079-2.159c0-1.359-.369-2.039-1.089-2.039-.67,0-1.09.58-1.09,2.049Z" fill="#fff"/>
    <path d="M121.989,158.133c0-.8,0-1.359-.01-1.719h.539c.01.15.021.39.021.919.229-.62.729-.989,1.339-1v.62c-.89.04-1.329.699-1.329,1.619v2.869h-.56v-3.308Z" fill="#fff"/>
    <path d="M126.528,161.441v-7.126h.56v7.126h-.56Z" fill="#fff"/>
    <path d="M131.427,158.863c0,1.749-.56,2.668-1.659,2.668-1.149,0-1.679-.889-1.679-2.658,0-1.729.659-2.539,1.699-2.539,1.059,0,1.639.84,1.639,2.529ZM128.668,158.883c0,1.479.4,2.149,1.1,2.149s1.079-.69,1.079-2.159c0-1.359-.369-2.039-1.089-2.039-.67,0-1.09.58-1.09,2.049Z" fill="#fff"/>
    <path d="M132.588,156.414c.53,2.449.8,3.678.899,4.388h.011c.1-.649.31-1.449.999-4.388h.56c.67,2.918.88,3.818.949,4.358h.011c.08-.56.3-1.529.939-4.358h.579l-1.239,5.027h-.619c-.38-1.689-.8-3.488-.92-4.288h-.01c-.1.76-.49,2.319-.96,4.288h-.64l-1.159-5.027h.6Z" fill="#fff"/>
    <path d="M140.408,160.022c.05.61.369,1.03.989,1.03.609,0,.899-.39.899-.899,0-.58-.3-.84-.989-1.11-.979-.379-1.289-.739-1.289-1.429,0-.669.409-1.289,1.369-1.289,1.049,0,1.369.709,1.379,1.389h-.56c-.021-.27-.09-.899-.84-.899-.539,0-.779.33-.779.78,0,.43.18.649.909.929.93.37,1.38.709,1.38,1.589,0,.889-.56,1.419-1.52,1.419-.97,0-1.479-.589-1.509-1.509h.56Z" fill="#fff"/>
    <path d="M143.788,155.315v-1h.56v1h-.56ZM143.788,156.414h.56v5.027h-.56v-5.027Z" fill="#fff"/>
    <path d="M148.616,161.151c0,1.279-.279,2.229-1.688,2.229-1.25,0-1.52-.839-1.55-1.359h.57c.02.32.229.87.989.87.93,0,1.119-.669,1.119-1.739v-.549c-.17.549-.609.83-1.199.83-.999,0-1.52-.83-1.52-2.449,0-1.839.69-2.649,1.63-2.649.689,0,.999.33,1.089.7,0-.25.03-.53.04-.62h.53c-.011.24-.011.76-.011,1.429v3.308ZM146.977,160.922c.85,0,1.1-.85,1.1-2.049,0-1.29-.21-2.029-1.029-2.029-.74,0-1.12.76-1.12,2.139,0,1.289.36,1.939,1.05,1.939Z" fill="#fff"/>
    <path d="M149.898,157.963c0-1.029-.01-1.329-.01-1.549h.539c.01.12.03.31.03.709.17-.439.529-.799,1.219-.799s1.29.38,1.29,1.539v3.578h-.57v-3.488c0-.649-.229-1.109-.85-1.109-.77,0-1.079.52-1.079,1.649v2.948h-.569v-3.478Z" fill="#fff"/>
    <path d="M156.917,160.632c0,.34.02.68.04.81h-.52c-.03-.12-.051-.4-.051-.61-.18.44-.579.7-1.209.7-.97,0-1.31-.75-1.31-1.439,0-.88.59-1.589,1.93-1.589.26,0,.409,0,.569.01v-.71c0-.43-.09-.989-.84-.989-.839,0-.879.61-.909.949h-.55c.021-.709.36-1.429,1.47-1.429.939,0,1.379.46,1.379,1.379v2.918ZM156.377,158.992c-.13-.02-.279-.03-.55-.03-.979,0-1.389.479-1.389,1.089,0,.53.279.979.859.979.789,0,1.079-.54,1.079-1.719v-.32Z" fill="#fff"/>
    <path d="M158.179,161.441v-7.126h.56v7.126h-.56Z" fill="#fff"/>
    <path d="M160.168,160.022c.05.61.369,1.03.989,1.03.609,0,.899-.39.899-.899,0-.58-.3-.84-.989-1.11-.979-.379-1.289-.739-1.289-1.429,0-.669.409-1.289,1.369-1.289,1.049,0,1.369.709,1.379,1.389h-.56c-.021-.27-.09-.899-.84-.899-.539,0-.779.33-.779.78,0,.43.18.649.909.929.93.37,1.38.709,1.38,1.589,0,.889-.56,1.419-1.52,1.419-.97,0-1.479-.589-1.509-1.509h.56Z" fill="#fff"/>
  </g>
  <g id="g2169">
    <g id="g2171">
      <g id="g2173">
        <g id="g2179">
          <path id="path2181" d="M100.099,162.766h7.718c.727,0,1.316-.589,1.316-1.316,0-.234-.061-.454-.168-.644l-3.859-7.017c-.225-.401-.655-.672-1.147-.672s-.922.271-1.147.672l-3.859,7.017c-.107.19-.168.41-.168.644,0,.727.589,1.316,1.316,1.316Z" fill="none" stroke="#ff0" stroke-linecap="round" stroke-linejoin="round" stroke-width=".5"/>
        </g>
        <g id="g2183">
          <path id="path2185" d="M103.959,156.187v2.631" fill="none" stroke="#ff0" stroke-linecap="round" stroke-linejoin="round" stroke-width=".5"/>
        </g>
        <g id="g2187">
          <path id="path2189" d="M104.397,160.573c0,.242-.196.439-.439.439s-.439-.196-.439-.439.196-.439.439-.439.439.196.439.439" fill="#ff0"/>
        </g>
      </g>
    </g>
  </g>
  <line x1="132.287" y1="144.725" x2="132.287" y2="152.914" fill="none" stroke="#d6d6d6" stroke-linecap="round" stroke-linejoin="round" stroke-width=".5"/>
  <line x1="32.701" y1="109.534" x2="32.701" y2="139.344" fill="none" stroke="#d6d6d6" stroke-linecap="round" stroke-linejoin="round" stroke-width=".5"/>
  <path d="M132.179,165.761v8.476c0,1.053-.854,1.908-1.908,1.908h-18.471c-1.053,0-1.907.854-1.907,1.908v2.887" fill="none" stroke="#d6d6d6" stroke-linecap="round" stroke-linejoin="round" stroke-width=".5"/>
</svg>